<svg xmlns="http://www.w3.org/2000/svg" version="1.1" xmlns:xlink="http://www.w3.org/1999/xlink" width="16" height="16" x="0" y="0" viewBox="0 0 64 64" style="enable-background:new 0 0 512 512" xml:space="preserve" class=""><g><path d="M32 13a11 11 0 1 0 11 11 11.012 11.012 0 0 0-11-11zm0 20a9 9 0 1 1 9-9 9.01 9.01 0 0 1-9 9z" fill="#056D38" opacity="1" data-original="#000000" class=""></path><path d="M32 0A24.027 24.027 0 0 0 8 24c0 17.229 22.357 38.813 23.309 39.723a1 1 0 0 0 1.382 0C33.643 62.813 56 41.229 56 24A24.027 24.027 0 0 0 32 0zm0 61.594C28.194 57.776 10 38.744 10 24a22 22 0 0 1 44 0c0 14.737-18.194 33.774-22 37.594z" fill="#056D38" opacity="1" data-original="#000000" class=""></path></g></svg>